<?xml version="1.0" encoding="UTF-8"?>
<svg width="50px" height="50px" viewBox="0 0 50 50" version="1.1" xmlns="http://www.w3.org/2000/svg" xmlns:xlink="http://www.w3.org/1999/xlink">
    <title>编组 6</title>
    <defs>
        <circle id="path-1" cx="25" cy="25" r="25"></circle>
    </defs>
    <g id="0929-图片浏览" stroke="none" stroke-width="1" fill="none" fill-rule="evenodd">
        <g id="文件传输助手网页版登录窗口备份-16" transform="translate(-682.000000, -826.000000)">
            <g id="编组-6" transform="translate(682.000000, 826.000000)">
                <g id="椭圆形备份-2">
                    <use fill-opacity="0.38" fill="#F0F0F0" xlink:href="#path-1"></use>
                    <use fill-opacity="0.4" fill="#000000" xlink:href="#path-1"></use>
                </g>
                <g id="icon38" transform="translate(10.000000, 10.000000)" fill="#FFFFFF">
                    <path d="M15.9375,2.5 L15.937,8.75 L14.062,8.75 L14.062,15.049 L11.9131254,12.8999996 L10.5875003,14.2258248 L14.1223002,17.7614255 C14.6104187,18.2496177 15.401875,18.2496774 15.8900672,17.761292 L15.8900672,17.761292 L19.4250005,14.2258248 L18.0993755,12.8999996 L15.937,15.062 L15.937,8.75 L23.7513043,8.75 C24.4385871,8.75 25,9.30729832 25,9.99476064 L25,26.2552394 C25,26.9388497 24.4427017,27.5 23.7552394,27.5 L6.24476064,27.5 C5.56115026,27.5 5,26.9427017 5,26.2552394 L5,9.99476064 C5,9.31115026 5.55906011,8.75 6.2486957,8.75 L14.062,8.75 L14.0625,2.5 L15.9375,2.5 Z" id="Combined-Shape"></path>
                </g>
            </g>
        </g>
    </g>
</svg>