<?xml version="1.0" encoding="UTF-8"?>
<svg viewBox="0 0 60 60" xmlns="http://www.w3.org/2000/svg">
 <path transform="translate(-.12724,-.38172)" d="m3.0538 47.785v7.1255h33.464v-7.1255h-33.464z" fill="#666" fill-rule="evenodd" stroke="#333" stroke-linecap="round" stroke-linejoin="round" stroke-width="1.875"/>
 <path transform="translate(-.12724,-.38172)" d="m36.645 47.53 21.376-19.341v6.9982l-21.376 19.722v-7.38z" fill="#666" fill-rule="evenodd" stroke="#333" stroke-linecap="round" stroke-linejoin="round" stroke-width="1.875"/>
 <path transform="matrix(.60943 0 .38312 -.35073 .013232 47.761)" d="m4.32232,38.76639h16.90767a.7234,.7234 0 0,1 .7234.7234v16.90767a.7234,.7234 0 0,1 -.7234.7234h-16.90767a.7234,.7234 0 0,1 -.7234-.7234v-16.90767a.7234,.7234 0 0,1 .7234-.7234" fill="#b3b3b3" fill-rule="evenodd" stroke="#333" stroke-linecap="round" stroke-linejoin="round" stroke-width="2.7037"/>
 <path transform="matrix(.63874 0 .40155 -.3676 -1.3811 48.537)" d="m22.51681,39.0976h16.13171a.6902,.6902 0 0,1 .6902.6902v16.13171a.6902,.6902 0 0,1 -.6902.6902h-16.13171a.6902,.6902 0 0,1 -.6902-.6902v-16.13171a.6902,.6902 0 0,1 .6902-.6902" fill="#7f7f7f" fill-rule="evenodd" stroke="#333" stroke-linecap="round" stroke-linejoin="round" stroke-width="2.5796"/>
 <path transform="matrix(.63874 0 .40155 -.3676 -1.3811 48.537)" d="m40.0534,39.0976h16.13171a.6902,.6902 0 0,1 .6902.6902v16.13171a.6902,.6902 0 0,1 -.6902.6902h-16.13171a.6902,.6902 0 0,1 -.6902-.6902v-16.13171a.6902,.6902 0 0,1 .6902-.6902" fill="#7f7f7f" fill-rule="evenodd" stroke="#333" stroke-linecap="round" stroke-linejoin="round" stroke-width="1.92"/>
 <path transform="matrix(.63874 0 .40155 -.3676 -.96404 48.471)" d="m4.44038,21.38106h16.13171a.6902,.6902 0 0,1 .6902.6902v16.13171a.6902,.6902 0 0,1 -.6902.6902h-16.13171a.6902,.6902 0 0,1 -.6902-.6902v-16.13171a.6902,.6902 0 0,1 .6902-.6902" fill="#7f7f7f" fill-rule="evenodd" stroke="#333" stroke-linecap="round" stroke-linejoin="round" stroke-width="2.5796"/>
 <path transform="matrix(.63874 0 .40155 -.3676 -.96404 48.471)" d="m21.97698,21.38106h16.13171a.6902,.6902 0 0,1 .6902.6902v16.13171a.6902,.6902 0 0,1 -.6902.6902h-16.13171a.6902,.6902 0 0,1 -.6902-.6902v-16.13171a.6902,.6902 0 0,1 .6902-.6902" fill="#b3b3b3" fill-rule="evenodd" stroke="#333" stroke-linecap="round" stroke-linejoin="round" stroke-width="2.5796"/>
 <path transform="matrix(.63874 0 .40155 -.3676 -.96404 48.471)" d="m39.51357,21.38106h16.13171a.6902,.6902 0 0,1 .6902.6902v16.13171a.6902,.6902 0 0,1 -.6902.6902h-16.13171a.6902,.6902 0 0,1 -.6902-.6902v-16.13171a.6902,.6902 0 0,1 .6902-.6902" fill="#7f7f7f" fill-rule="evenodd" stroke="#333" stroke-linecap="round" stroke-linejoin="round" stroke-width="2.5796"/>
 <path transform="matrix(.63874 0 .40155 -.3676 -.89178 48.405)" d="m4.44038,3.66452h16.13171a.6902,.6902 0 0,1 .6902.6902v16.13171a.6902,.6902 0 0,1 -.6902.6902h-16.13171a.6902,.6902 0 0,1 -.6902-.6902v-16.13171a.6902,.6902 0 0,1 .6902-.6902" fill="#7f7f7f" fill-rule="evenodd" stroke="#333" stroke-linecap="round" stroke-linejoin="round" stroke-width="2.5796"/>
 <path transform="matrix(.63874 0 .40155 -.3676 -.89178 48.405)" d="m21.97698,3.66452h16.13171a.6902,.6902 0 0,1 .6902.6902v16.13171a.6902,.6902 0 0,1 -.6902.6902h-16.13171a.6902,.6902 0 0,1 -.6902-.6902v-16.13171a.6902,.6902 0 0,1 .6902-.6902" fill="#b3b3b3" fill-rule="evenodd" stroke="#333" stroke-linecap="round" stroke-linejoin="round" stroke-width="2.5796"/>
 <path transform="matrix(.63874 0 .40155 -.3676 -.89178 48.405)" d="m39.51357,3.66452h16.13171a.6902,.6902 0 0,1 .6902.6902v16.13171a.6902,.6902 0 0,1 -.6902.6902h-16.13171a.6902,.6902 0 0,1 -.6902-.6902v-16.13171a.6902,.6902 0 0,1 .6902-.6902" fill="#b3b3b3" fill-rule="evenodd" stroke="#333" stroke-linecap="round" stroke-linejoin="round" stroke-width="2.5796"/>
 <path transform="matrix(.65406 0 .41118 -.37642 -1.9016 49.069)" d="m5.8834 4.523h48.291a2.0662 2.0662 0 0 1 2.0662 2.0662v48.291a2.0662 2.0662 0 0 1 -2.0662 2.0662h-48.291a2.0662 2.0662 0 0 1 -2.0662 -2.0662v-48.291a2.0662 2.0662 0 0 1 2.0662 -2.0662" fill="none" stroke="#333" stroke-width="3.7788"/>
 <path transform="translate(-.50896,-.50896)" d="m15.142 47.53v7.6345" fill="none" stroke="#333" stroke-width="1.25"/>
 <path transform="translate(-.50896,-.50896)" d="m26.466 47.53v7.5072" fill="none" stroke="#333" stroke-width="1.25"/>
 <path transform="translate(-.50896,-.50896)" d="m43.771 41.423v7.6345" fill="none" stroke="#333" stroke-width="1.25"/>
 <path transform="translate(-.50896,-.50896)" d="m51.024 35.315v6.6165" fill="none" stroke="#333" stroke-width="1.25"/>
 <path transform="translate(0 2.4176)" d="m41.481 34.425v-30.156" fill="none" stroke="#333" stroke-linecap="round" stroke-linejoin="round" stroke-width="3.125"/>
 <path transform="matrix(1 0 0 1.1413 -.50896 3.445)" d="m41.481 16.102v-12.342s-27.826-6.4999-26.084 0-10.052 12.342 0 12.342h26.084z" fill="#b3b3b3" fill-rule="evenodd" stroke="#333" stroke-width="1.7551"/>
 <path transform="matrix(.46538 0 0 .46538 9.9566 5.7188)" d="m26.19303,18.53755v-13.99219c0-.51563.16797-.94531.50391-1.28906s.76953-.51563 1.30078-.51563 .96094.16016 1.28906.48047c.33594.32031.50391.76172.50391,1.32422v5.22656l5.90625-6.35156c.41406-.45313.87891-.67969 1.39453-.67969 .47656,0 .89063.16406 1.24219.49219 .35938.32031.53906.74219.53906,1.26563 0,.29688-.09375.58984-.28125.87891-.1875.28125-.48828.62891-.90234,1.04297l-4.53516,4.51172 5.54297,5.84766c.32031.30469.56641.60156.73828.89063 .17969.28125.26953.59375.26953.9375 0,.54688-.17969.96484-.53906,1.25391-.35938.28125-.80469.42188-1.33594.42188-.3125,0-.59766-.08594-.85547-.25781-.25-.17188-.57031-.46094-.96094-.86719l-6.22266-6.79688v6.17578c0,.49219-.16797.90625-.50391,1.24219s-.76563.50391-1.28906.50391-.95703-.16016-1.30078-.48047-.50391-.74219-.50391-1.26563z" fill="#333"/>
 <path transform="matrix(.234 0 0 .234 9.9566 5.7188)" d="m34.557 50.424 4.5845 4.8028 7.4225-5.0211 5.8944 2.6198 1.9648 8.6045 6.331-0.05815 1.7465-8.8287 5.8944-2.3375 7.4225 4.8028 3.493-4.8028-8.4236-7.9495c-21.591 19.803-40.248-10.718-21.703-23.487l-2e-5 -4.5845-2.1831 1.0916-6.7676-4.3023-4.6749 3.8391 4.2383 7.2307-2.4014 5.8944-8.2702 1.3738-0.02552 6.267 8.5141 2.1831 2.3468 5.7306-5.4032 6.9313z" fill="#333" fill-rule="evenodd" stroke="#333" stroke-linecap="round" stroke-linejoin="round" stroke-width=".375"/>
</svg>
